# xmcd CD database file
#
# Track frame offsets:
#	150
#	4418
#	37193
#	54770
#	88406
#	104396
#	132179
#	151424
#
# Disc length: 2273 seconds
#
# Revision: 0
# Processed by: cddbd v1.5.2PL0 Copyright (c) Steve Scherf et al.
# Submitted via: CDex 1.70beta2
#
DISCID=6508df08
DTITLE=Unni Løvlid - Lux
DYEAR=2013
DGENRE=Jazz
TTITLE0=En
TTITLE1=Afften Psalme (Dagen viger og gaar bort)
TTITLE2=Nu solen gar ned
TTITLE3=Nu Dagens Lys sig sniger hen
TTITLE4=Vel oplyste Laeremester!
TTITLE5=En liten vise (Om kvelden nar det morkner)
TTITLE6=Ned i vester
TTITLE7=Byssan byssan
EXTD=YEAR: 2013
EXTT0=
EXTT1=
EXTT2=
EXTT3=
EXTT4=
EXTT5=
EXTT6=
EXTT7=
PLAYORDER=
